<svg xmlns="http://www.w3.org/2000/svg" width="15" height="14.947" viewBox="0 0 15 14.947">
  <g id="moon" transform="translate(0 -0.547)">
    <g id="Group_17398" data-name="Group 17398" transform="translate(0 0.546)">
      <path id="Path_1462" data-name="Path 1462" d="M14.645,9.053a.527.527,0,0,0-.441.1,5.624,5.624,0,0,1-1.706,1,5.343,5.343,0,0,1-1.936.345A5.629,5.629,0,0,1,4.927,4.855,5.908,5.908,0,0,1,5.233,3a5.147,5.147,0,0,1,.92-1.649.489.489,0,0,0-.077-.69.527.527,0,0,0-.441-.1A7.736,7.736,0,0,0,1.572,3.283a7.588,7.588,0,1,0,13.4,6.383A.455.455,0,0,0,14.645,9.053Z" transform="translate(0 -0.546)" fill="#171717"/>
    </g>
  </g>
</svg>
