<svg xmlns="http://www.w3.org/2000/svg" width="30.382" height="17.528" viewBox="0 0 30.382 17.528">
  <g id="Group_18419" data-name="Group 18419" transform="translate(-37 -41.472)">
    <g id="Group_16806" data-name="Group 16806" transform="translate(10 -72.528)">
      <g id="menu" transform="translate(27 114)">
        <g id="Menu_1_" transform="translate(0 0)">
          <path id="Path_1405" data-name="Path 1405" d="M29.432,98.142H.949a.949.949,0,1,1,0-1.9H29.432a.949.949,0,1,1,0,1.9Z" transform="translate(0 -96.243)" fill="#222"/>
          <path id="Path_1406" data-name="Path 1406" d="M.949,180.455H29.432a.949.949,0,0,1,0,1.9H.949a.949.949,0,0,1,0-1.9Z" transform="translate(0 -172.64)" fill="#222"/>
          <path id="Path_1407" data-name="Path 1407" d="M121.252,264.667h18.989a.949.949,0,1,1,0,1.9H121.252a.949.949,0,0,1,0-1.9Z" transform="translate(-120.303 -249.038)" fill="#222"/>
        </g>
      </g>
    </g>
  </g>
</svg>
