<svg id="Group_18476" data-name="Group 18476" xmlns="http://www.w3.org/2000/svg" width="58.104" height="20" viewBox="0 0 58.104 20">
  <g id="Group_18475" data-name="Group 18475" transform="translate(0 0)">
    <path id="Path_1520" data-name="Path 1520" d="M-410,99.975a1.152,1.152,0,0,0,1.111,1.111h53.234l-7.008,7a1.105,1.105,0,0,0-.323.782,1.105,1.105,0,0,0,.323.782,1.111,1.111,0,0,0,1.569,0l8.887-8.894a1.148,1.148,0,0,0,0-1.57L-361.1,90.3a1.111,1.111,0,0,0-1.57,0,1.111,1.111,0,0,0,0,1.57l7,7H-408.9A1.134,1.134,0,0,0-410,99.975Z" transform="translate(410 -89.975)" fill="#fff"/>
  </g>
</svg>
