<svg id="sunny-day" xmlns="http://www.w3.org/2000/svg" width="15" height="15" viewBox="0 0 15 15">
  <path id="Path_1453" data-name="Path 1453" d="M102.893,183.46a.512.512,0,0,0-.512.512v1.455a.512.512,0,0,0,1.024,0v-1.455A.512.512,0,0,0,102.893,183.46Z" transform="translate(-95.394 -170.939)" fill="#fff"/>
  <path id="Path_1454" data-name="Path 1454" d="M102.893,2.482a.512.512,0,0,0,.512-.512V.515a.512.512,0,1,0-1.024,0V1.97A.512.512,0,0,0,102.893,2.482Z" transform="translate(-95.394 -0.003)" fill="#fff"/>
  <path id="Path_1455" data-name="Path 1455" d="M31.166,159.864l-1.029,1.029a.512.512,0,0,0,.724.724l1.029-1.029a.512.512,0,1,0-.724-.724Z" transform="translate(-27.94 -148.814)" fill="#fff"/>
  <path id="Path_1456" data-name="Path 1456" d="M160.22,32.043a.51.51,0,0,0,.362-.15l1.029-1.029a.512.512,0,1,0-.724-.724l-1.029,1.029a.512.512,0,0,0,.362.874Z" transform="translate(-148.809 -27.943)" fill="#fff"/>
  <path id="Path_1457" data-name="Path 1457" d="M2.479,102.907a.512.512,0,0,0-.512-.512H.512a.512.512,0,0,0,0,1.024H1.967A.512.512,0,0,0,2.479,102.907Z" transform="translate(0 -95.407)" fill="#fff"/>
  <path id="Path_1458" data-name="Path 1458" d="M185.42,102.395h-1.456a.512.512,0,1,0,0,1.024h1.456a.512.512,0,1,0,0-1.024Z" transform="translate(-170.932 -95.407)" fill="#fff"/>
  <path id="Path_1459" data-name="Path 1459" d="M31.173,31.894a.512.512,0,1,0,.724-.724l-1.029-1.029a.512.512,0,1,0-.724.724Z" transform="translate(-27.947 -27.945)" fill="#fff"/>
  <path id="Path_1460" data-name="Path 1460" d="M160.589,159.864a.512.512,0,0,0-.724.724l1.029,1.029a.512.512,0,0,0,.724-.724Z" transform="translate(-148.815 -148.814)" fill="#fff"/>
  <path id="Path_1461" data-name="Path 1461" d="M55.5,51.518A3.984,3.984,0,1,0,59.484,55.5,3.989,3.989,0,0,0,55.5,51.518Zm0,6.944a2.96,2.96,0,1,1,2.96-2.96A2.964,2.964,0,0,1,55.5,58.462Z" transform="translate(-48 -48.002)" fill="#fff"/>
</svg>
